<svg fill="#8e44ad" xmlns="http://www.w3.org/2000/svg" viewBox="0 0 478.633 478.633" enable-background="new 0 0 478.633 478.633"><path d="M478.583 181.578c-.673-15.9-8.033-30.905-20.195-41.167l-20.387-17.204 13.403-13.404c5.308-5.308 8.237-12.367 8.25-19.911-.013-7.51-2.942-14.569-8.25-19.878-5.315-5.315-12.381-8.243-19.896-8.243-7.514 0-14.579 2.927-19.895 8.243l-16.771 16.772-27.766-23.431c-10.95-9.24-24.86-13.992-39.18-13.392-14.315.605-27.779 6.518-37.911 16.65-10.131 10.131-16.044 23.595-16.649 37.91-.604 14.315 4.151 28.23 13.392 39.18l23.433 27.768-48.529 48.53-55.72-55.72 11.402-14.698c3.088-3.981 2.732-9.638-.83-13.201l-62.206-62.206c-3.563-3.562-9.219-3.919-13.201-.83l-14.698 11.402-22.749-22.749c-1.875-1.875-4.419-2.929-7.071-2.929s-5.196 1.054-7.071 2.929l-25.647 25.647c-3.905 3.905-3.905 10.237 0 14.142l17.725 17.725-77.695 60.274c-2.268 1.76-3.671 4.409-3.851 7.273-.18 2.865.88 5.669 2.909 7.699l92.971 92.971c1.881 1.881 4.427 2.929 7.071 2.929.208 0 .418-.007.628-.02 2.865-.18 5.514-1.583 7.274-3.851l60.274-77.695 50.696 50.696-113.39 113.39c-5.315 5.315-8.241 12.381-8.241 19.897.001 7.516 2.929 14.581 8.244 19.895 5.484 5.482 12.687 8.222 19.89 8.222 7.205 0 14.41-2.742 19.894-8.227l113.39-113.39 126.215 126.215c1.953 1.953 4.512 2.929 7.071 2.929s5.118-.977 7.071-2.929l25.647-25.647c1.875-1.875 2.929-4.419 2.929-7.071s-1.054-5.196-2.929-7.071l-126.215-126.214 45.161-45.16 17.204 20.387c10.264 12.162 25.27 19.522 41.169 20.194.798.034 1.593.051 2.388.051 15.062 0 29.649-6.012 40.338-16.7l14.255-14.255c11.252-11.254 17.321-26.828 16.649-42.727zm-66.744-54.279l-28.283 6.301 5.657-25.395 22.626 19.094zm13.918-43.143c1.538-1.538 3.581-2.385 5.752-2.385 2.172 0 4.215.847 5.753 2.385 1.539 1.54 2.389 3.589 2.393 5.736-.004 2.181-.854 4.23-2.393 5.769l-14.6 14.6-12.479-10.531 15.574-15.574zm-121.628-3.402c7.252-7.252 16.685-10.922 26.157-10.922 8.438 0 16.91 2.915 23.893 8.807l17.787 15.01-9.969 44.753-45.094 10.045-14.889-17.643c-12.507-14.82-11.598-36.337 2.115-50.05zm27.328 84.942l25.735-5.733-6.385 28.663-19.35-22.93zm-172.457-58.514l24.477 24.477-22.913-1.564-1.564-22.913zm-18.576 21.539l-35.017-2.39 33.101-25.679 1.916 28.069zm1.375 20.14l4.105 60.142-20.899 26.939-70.288-70.288 26.938-20.898 60.144 4.105zm22.53 36.392l-2.39-35.017 28.069 1.916-25.679 33.101zm-79.275-90.535l11.505-11.505 13.892 13.892-12.958 10.052-12.439-12.439zm16.968 170.85l-76.93-76.931 13.698-10.627 73.859 73.859-10.627 13.699zm91.533-85.36l84.841 84.841h-23.01l-71.883-71.883 10.052-12.958zm179.531 179.531v23.01l-26.903-26.903h23.01l3.893 3.893zm-46.903-23.893l-3.894-3.894v-23.01l26.904 26.903h-23.01zm-23.894-46.904v23.01l-26.903-26.903h23.01l3.893 3.893zm-140.611 82.302h-23.006l26.899-26.899v23.006l-3.893 3.893zm23.894-46.899l3.897-3.897h23.006l-26.903 26.903v-23.006zm-62.976 74.481c-1.537-1.536-2.383-3.579-2.384-5.752 0-.625.078-1.236.214-1.83h21.252l-7.581 7.581c-3.17 3.171-8.33 3.171-11.501.001zm109.879-98.379h-23.006l26.515-26.515 11.503 11.503-15.012 15.012zm162.441 104.132l-1.83-1.83v-23.01l13.335 13.335-11.505 11.505zm-107.639-158.934l-11.502-11.503 47.332-47.332 10.529 12.477-46.359 46.358zm160.514-35.483l-14.255 14.255c-7.412 7.413-17.241 11.253-27.739 10.809-10.474-.443-19.966-5.099-26.728-13.111l-12.051-14.28 11.734-52.676 52.296-11.65 14.44 12.185c8.012 6.761 12.668 16.253 13.111 26.727.444 10.476-3.395 20.327-10.808 27.741zM444.546 164.366c-10.326-2.763-21.438.213-28.993 7.769-3.554 3.553-6.107 7.842-7.52 12.525-4.681 1.41-8.97 3.963-12.523 7.518-7.557 7.557-10.533 18.667-7.77 28.994 1.196 4.469 5.237 7.417 9.654 7.417.855 0 1.726-.111 2.592-.343 5.335-1.428 8.502-6.91 7.074-12.246-.924-3.449.069-7.159 2.592-9.681 1.892-1.891 4.404-2.932 7.079-2.932h.023c2.65 0 5.192-1.052 7.067-2.925 1.878-1.876 2.933-4.421 2.933-7.075 0-2.689 1.044-5.214 2.939-7.11 2.522-2.521 6.234-3.514 9.68-2.591 5.337 1.428 10.818-1.74 12.246-7.074 1.429-5.336-1.738-10.818-7.073-12.246z"/></svg>
