<?xml version="1.0" encoding="utf-8"?>
<!-- Generator: Adobe Illustrator 21.0.2, SVG Export Plug-In . SVG Version: 6.00 Build 0)  -->
<svg version="1.1" id="Laag_1" xmlns="http://www.w3.org/2000/svg" xmlns:xlink="http://www.w3.org/1999/xlink" x="0px" y="0px"
	 viewBox="0 0 310.1 466.1" style="enable-background:new 0 0 310.1 466.1;" xml:space="preserve">
<style type="text/css">
	.st0{fill:#7D4694;}
</style>
<g>
	<g>
		<circle class="st0" cx="155.1" cy="161.1" r="11.1"/>
		<path class="st0" d="M201.3,161.1c0-5.8-4.4-10.5-10.1-11c-3.7-11.9-13.1-21.4-25-25c-0.5-5.6-5.3-10.1-11-10.1
			c-5.8,0-10.5,4.4-11,10.1c-11.9,3.7-21.4,13.1-25,25c-5.6,0.5-10.1,5.3-10.1,11c0,5.8,4.4,10.5,10.1,11c3.7,11.9,13.1,21.4,25,25
			c0.5,5.6,5.3,10.1,11,10.1c5.8,0,10.5-4.4,11-10.1c11.9-3.7,21.4-13.1,25-25C196.8,171.6,201.3,166.9,201.3,161.1z M156.5,185.1
			c-0.4-0.1-0.9-0.1-1.4-0.1s-0.9,0-1.4,0.1c-12.2-0.7-22-10.5-22.7-22.7c0.1-0.4,0.1-0.9,0.1-1.4s0-0.9-0.1-1.4
			c0.7-12.2,10.5-22,22.7-22.7c0.4,0.1,0.9,0.1,1.4,0.1s0.9,0,1.4-0.1c12.2,0.7,22,10.5,22.7,22.7c-0.1,0.4-0.1,0.9-0.1,1.4
			s0,0.9,0.1,1.4C178.5,174.6,168.7,184.4,156.5,185.1z"/>
	</g>
	<path class="st0" d="M189.9,87.3C196.6,80,203.3,69,205.3,59c0.6-3-0.4-5.9-2.4-7.8c-1.2-1.2-2.7-2-4.4-2.4
		c-4.9-1-9.8-1.3-14.6-0.9c1.5-12.9-0.7-26-6.7-38c-0.4-0.8-1-1.6-1.6-2.3c-0.9-0.9-2.1-1.7-3.4-2.1c-2.2-0.7-4.6-0.6-6.6,0.5
		c-6.6,3.3-12.6,7.6-17.7,12.7C130.2,36.4,124,62,130.6,85.3 M185,65.2c-2.9,5.6-7.1,10.4-12.5,14c-5.4,3.6-11.5,5.7-17.8,6.1
		C160.6,73.8,172.1,66.1,185,65.2z M160.1,31c1.6-1.6,3.3-3.1,5.1-4.4c2.4,8.4,2.5,17.3,0.3,25.9c-7.8,3.5-14.7,8.8-20.1,15.6
		C145,54.5,150.1,41.1,160.1,31z"/>
	<g>
		<g>
			<path class="st0" d="M193.4,211.1c33,0,59.9,26.9,59.9,59.9c0,20.1-16.4,36.5-36.5,36.5H214c-21.9,0-39.8-17.9-39.8-39.8l0-37.3
				C174.2,219.7,182.8,211.1,193.4,211.1z M216.8,292c11.6,0,21-9.4,21-21c0-24.5-19.9-44.4-44.4-44.4c-2.1,0-3.8,1.7-3.8,3.8
				l0,37.3c0,13.4,10.9,24.3,24.3,24.3H216.8z"/>
		</g>
	</g>
	<g>
		<g>
			<path class="st0" d="M135.6,230.4l0,37.3c0,21.9-17.9,39.8-39.8,39.8H93c-20.1,0-36.5-16.4-36.5-36.5c0-33,26.9-59.9,59.9-59.9
				C127,211.1,135.6,219.7,135.6,230.4z M95.8,292c13.4,0,24.3-10.9,24.3-24.3l0-37.3c0-2.1-1.7-3.8-3.8-3.8
				c-24.5,0-44.4,19.9-44.4,44.4c0,11.6,9.4,21,21,21H95.8z"/>
		</g>
	</g>
	<g>
		<path class="st0" d="M65.7,368.8l0-7.8l-17.6-3.2l0,11.1c-22.7,25.5-21.9,64.8,2.6,89.2c1.7,1.7,3.9,2.6,6.2,2.6
			c2.3,0,4.6-0.9,6.2-2.6C87.6,433.6,88.5,394.4,65.7,368.8z M56.9,437.9c-10.2-15.6-10.2-36,0-51.7
			C67.1,401.9,67.1,422.3,56.9,437.9z"/>
	</g>
	<g>
		<path class="st0" d="M247.1,458.1c1.7,1.7,3.9,2.6,6.2,2.6c2.3,0,4.6-0.9,6.2-2.6c24.5-24.5,25.3-63.7,2.6-89.2v-11.1l-17.6,3.2
			v7.8C221.8,394.4,222.6,433.6,247.1,458.1z M253.3,386.3c10.2,15.6,10.2,36,0,51.7C243.1,422.3,243.1,401.9,253.3,386.3z"/>
	</g>
	<g>
		<path class="st0" d="M145.4,299.7c-4.1-0.5-7.9,2.4-8.4,6.6l-3.8,30.3c-0.5,4.1,2.4,7.9,6.6,8.4c0.3,0,0.6,0.1,0.9,0.1
			c3.8,0,7-2.8,7.5-6.6l3.8-30.3C152.5,304,149.5,300.2,145.4,299.7z"/>
		<path class="st0" d="M177,336.6l-3.8-30.3c-0.5-4.1-4.3-7.1-8.4-6.6c-4.1,0.5-7.1,4.3-6.6,8.4l3.8,30.3c0.5,3.8,3.7,6.6,7.5,6.6
			c0.3,0,0.6,0,0.9-0.1C174.6,344.5,177.6,340.7,177,336.6z"/>
	</g>
	<g>
		<path class="st0" d="M155.4,379.8c-4.2-0.1-7.6,3.3-7.6,7.4l-0.4,30.5c0,3.8,2.8,7.1,6.5,7.6c0.3,0,0.6,0.1,0.9,0.1
			c4.2,0.1,7.6-3.3,7.6-7.4l0.4-30.5h0C162.9,383.3,159.6,379.9,155.4,379.8z"/>
		<path class="st0" d="M125.7,379.8c-4.2-0.1-7.6,3.3-7.6,7.4l-0.4,30.5c0,3.8,2.8,7.1,6.5,7.6c0.3,0,0.6,0.1,0.9,0.1
			c4.2,0.1,7.6-3.3,7.6-7.4l0.4-30.5C133.2,383.3,129.9,379.9,125.7,379.8z"/>
		<path class="st0" d="M185.1,379.8c-4.2-0.1-7.6,3.3-7.6,7.4l-0.4,30.5c0,3.8,2.8,7.1,6.5,7.6c0.3,0,0.6,0.1,0.9,0.1
			c4.2,0.1,7.6-3.3,7.6-7.4l0.4-30.5C192.6,383.3,189.3,379.9,185.1,379.8z"/>
	</g>
	<path class="st0" d="M255.3,123.6c-12.8-12.8-27.8-22.9-44.4-30c-17.2-7.3-35.6-11-54.4-11h-2.7c-18.9,0-37.2,3.7-54.4,11
		c-16.7,7-31.6,17.1-44.4,30C42.1,136.4,32,151.4,25,168c-7.3,17.2-11,35.6-11,54.4l0,2.7c0,29.8,9.3,58.3,26.8,82.4l1.8,2.4
		l-1.9,2.3c-4.5,5.5-7,12.5-7,19.7v0.5c0,17.2,14,31.3,31.3,31.3l17.7,0l6.9,40.2c0.7,4,4.2,6.9,8.2,6.9l114.6,0
		c4.1,0,7.5-2.9,8.2-6.9l7-40.2h17.7c17.2,0,31.3-14,31.3-31.3v-0.5c0-7.2-2.5-14.2-7-19.7l-1.9-2.3l1.8-2.4
		c17.6-24.1,26.8-52.6,26.8-82.4v-2.7c0-18.9-3.7-37.2-11-54.4C278.2,151.4,268.2,136.4,255.3,123.6z M279.6,225.1
		c0,29.8-10.8,58.5-30.3,80.9c-1.7,2-2.4,4.5-1.9,7.1c0.5,2.6,2.1,4.7,4.4,5.9c4.9,2.5,8,7.5,8,13v0.5c0,8-6.5,14.5-14.5,14.5h-24.7
		c-4.1,0-7.5,2.9-8.2,6.9l-7,40.2l-100.6,0l-6.9-40.2c-0.7-4-4.2-6.9-8.2-6.9H65c-8,0-14.5-6.5-14.5-14.5v-0.5c0-5.5,3.1-10.5,8-13
		c2.3-1.2,3.9-3.3,4.4-5.9c0.5-2.5-0.2-5.2-1.9-7.1c-19.5-22.4-30.3-51.1-30.3-80.9v-2.7c0-32.9,12.8-63.8,36.1-87.1
		c23.3-23.3,54.2-36.1,87.1-36.1h2.7c32.9,0,63.8,12.8,87.1,36.1c23.3,23.3,36.1,54.2,36.1,87.1V225.1z"/>
</g>
</svg>
